<?xml version="1.0" standalone="no"?>
<!DOCTYPE svg PUBLIC "-//W3C//DTD SVG 20010904//EN"
 "http://www.w3.org/TR/2001/REC-SVG-20010904/DTD/svg10.dtd">
<svg version="1.0" xmlns="http://www.w3.org/2000/svg"
 width="229.000000pt" height="220.000000pt" viewBox="0 0 229.000000 220.000000"
 preserveAspectRatio="xMidYMid meet">

<g transform="translate(0.000000,220.000000) scale(0.100000,-0.100000)"
fill="#000000" stroke="none">
<path d="M8 2137 c2 -34 7 -91 10 -126 l7 -65 110 -32 c60 -18 111 -31 114
-29 2 3 -1 5 -8 5 -7 0 -9 5 -5 11 3 6 0 15 -7 20 -12 7 -11 9 1 10 8 0 4 5
-10 9 l-25 8 25 1 c18 1 21 4 12 10 -8 4 -18 41 -23 81 -5 41 -14 77 -20 81
-8 5 -5 9 7 12 15 4 14 5 -6 6 -23 2 -24 3 -7 15 17 13 16 14 -5 19 -13 3 -48
9 -78 12 -30 3 -64 8 -76 10 -19 4 -20 1 -16 -58z"/>
<path d="M2245 2193 c-93 -11 -166 -26 -158 -32 18 -12 23 -41 8 -41 -11 0
-15 -13 -15 -49 0 -27 -7 -64 -15 -84 -8 -19 -11 -38 -7 -41 3 -4 0 -11 -8
-16 -12 -8 -12 -10 4 -10 26 0 5 -24 -35 -40 -16 -7 -28 -15 -25 -17 2 -2 20
3 40 11 20 8 38 16 41 17 2 0 46 13 97 29 l93 27 7 69 c12 131 15 184 9 183
-3 -1 -19 -4 -36 -6z m-108 -49 c-3 -3 -12 -4 -19 -1 -8 3 -5 6 6 6 11 1 17
-2 13 -5z"/>
<path d="M1344 1758 c-54 -59 -100 -134 -126 -204 -19 -53 -22 -81 -24 -269
-1 -125 1 -180 5 -135 4 41 10 80 14 86 4 7 14 45 23 85 9 41 20 92 25 114 6
22 11 58 13 80 2 22 12 57 21 78 12 29 13 42 5 52 -8 10 -6 21 8 45 11 17 24
32 28 33 5 1 8 6 6 11 -2 5 9 22 24 37 15 16 25 29 22 29 -3 0 -23 -19 -44
-42z"/>
<path d="M928 1765 c13 -10 21 -23 18 -32 -3 -8 -2 -12 3 -9 10 7 53 -69 44
-78 -8 -8 27 -195 38 -202 5 -3 9 -21 9 -40 0 -19 4 -42 9 -52 6 -9 13 -38 16
-64 3 -27 10 -48 15 -48 5 0 11 -37 13 -82 2 -46 3 12 3 127 -2 208 -2 211
-31 283 -30 75 -118 202 -145 210 -8 2 -5 -4 8 -13z"/>
<path d="M1300 1660 c0 -5 5 -10 10 -10 6 0 10 5 10 10 0 6 -4 10 -10 10 -5 0
-10 -4 -10 -10z"/>
<path d="M150 1563 c0 -5 11 -41 23 -82 l23 -74 89 -28 c102 -33 110 -34 75
-14 -14 8 -19 14 -12 15 10 0 10 4 -2 15 -14 14 -22 41 -30 100 -2 15 -21 27
-77 47 -82 30 -89 31 -89 21z"/>
<path d="M2047 1541 c-76 -28 -102 -41 -79 -41 7 0 12 -5 12 -11 0 -5 -3 -8
-7 -6 -5 3 -8 -8 -9 -23 -1 -15 -5 -36 -9 -46 -9 -20 -16 -54 -12 -54 1 0 35
11 76 23 l73 23 24 74 c26 82 28 90 17 89 -5 0 -43 -13 -86 -28z"/>
<path d="M860 1173 c20 -28 22 -36 12 -57 -10 -22 -8 -28 16 -48 15 -13 42
-45 60 -72 37 -57 40 -52 13 22 -22 61 -71 140 -103 168 -20 18 -20 17 2 -13z
m36 -78 c-2 -7 1 -19 7 -26 7 -7 2 -5 -10 5 -20 17 -22 53 -1 40 5 -3 7 -12 4
-19z"/>
<path d="M1426 1175 c-9 -26 -7 -32 5 -12 6 10 9 21 6 23 -2 3 -7 -2 -11 -11z"/>
<path d="M1392 1139 c-10 -16 -10 -24 -1 -35 16 -20 25 -18 25 6 0 11 -4 20
-8 20 -4 0 -5 7 -2 15 9 22 1 18 -14 -6z"/>
<path d="M1355 1080 c-14 -28 -45 -116 -45 -130 0 -3 10 11 21 30 12 19 35 50
52 68 18 19 25 32 17 30 -8 -2 -14 2 -15 9 -1 26 -15 23 -30 -7z"/>
<path d="M977 876 c-7 -51 -8 -178 -1 -161 10 26 20 140 14 173 l-6 37 -7 -49z"/>
<path d="M1299 887 c-3 -21 0 -72 5 -115 l11 -77 3 55 c1 30 -1 82 -6 115 -8
57 -8 58 -13 22z"/>
</g>
</svg>
